<svg id="icons" xmlns="http://www.w3.org/2000/svg" xmlns:xlink="http://www.w3.org/1999/xlink" viewBox="0 0 64 64"><defs><style>.cls-1{opacity:0.08;}.cls-2,.cls-3,.cls-6{fill-rule:evenodd;}.cls-3{fill:url(#linear-gradient);}.cls-4{fill:url(#linear-gradient-2);}.cls-5{opacity:0.16;}.cls-6{fill:url(#linear-gradient-3);}</style><linearGradient id="linear-gradient" x1="32" y1="56" x2="32" y2="8" gradientUnits="userSpaceOnUse"><stop offset="0" stop-color="#abdefb"/><stop offset="1" stop-color="#b2e1fb"/></linearGradient><linearGradient id="linear-gradient-2" x1="32" y1="56" x2="32" y2="17" gradientUnits="userSpaceOnUse"><stop offset="0" stop-color="#91d0f6"/><stop offset="1" stop-color="#81c8f3"/></linearGradient><linearGradient id="linear-gradient-3" x1="32" y1="56" x2="32" y2="8" gradientUnits="userSpaceOnUse"><stop offset="0"/><stop offset="0.06" stop-opacity="0"/></linearGradient></defs><title>folder</title><g class="cls-1"><path class="cls-2" d="M58.875,14H24.5c-3.01892,0-2.95605-5-6.5-5H5.125A3.125,3.125,0,0,0,2,12.125v43A1.87505,1.87505,0,0,0,3.875,57h56.25A1.87505,1.87505,0,0,0,62,55.125v-38A3.125,3.125,0,0,0,58.875,14Z"/></g><path class="cls-3" d="M58.875,13H24.5c-3.01892,0-2.95605-5-6.5-5H5.125A3.125,3.125,0,0,0,2,11.125v43A1.87505,1.87505,0,0,0,3.875,56h56.25A1.87505,1.87505,0,0,0,62,54.125v-38A3.125,3.125,0,0,0,58.875,13Z"/><path class="cls-4" d="M2,17H62a0,0,0,0,1,0,0V54a2,2,0,0,1-2,2H4a2,2,0,0,1-2-2V17A0,0,0,0,1,2,17Z"/><g class="cls-5"><rect x="3" y="17" width="58" height="1"/></g><g class="cls-5"><path class="cls-6" d="M58.875,13H24.5c-3.01892,0-2.95605-5-6.5-5H5.125A3.125,3.125,0,0,0,2,11.125v43A1.87505,1.87505,0,0,0,3.875,56h56.25A1.87505,1.87505,0,0,0,62,54.125v-38A3.125,3.125,0,0,0,58.875,13ZM60,54H4V11.125A1.12654,1.12654,0,0,1,5.125,10H18c.61719,0,.94727.30713,1.85986,1.73C20.69531,13.03223,21.958,15,24.5,15H58.875A1.12654,1.12654,0,0,1,60,16.125Z"/></g><g class="cls-5"><path class="cls-2" d="M58.875,13H24.5c-3.01892,0-2.95605-5-6.5-5H5.125A3.125,3.125,0,0,0,2,11.125v43A1.87505,1.87505,0,0,0,3.875,56h56.25A1.87505,1.87505,0,0,0,62,54.125v-38A3.125,3.125,0,0,0,58.875,13ZM61,54.125a.87606.87606,0,0,1-.875.875H3.875A.87606.87606,0,0,1,3,54.125v-43A2.12722,2.12722,0,0,1,5.125,9H18c1.23389,0,1.83057.832,2.70166,2.18994C21.50488,12.44189,22.50439,14,24.5,14H58.875A2.12722,2.12722,0,0,1,61,16.125Z"/></g></svg>