
<svg width="63" height="41" viewBox="0 0 63 41" fill="none" xmlns="http://www.w3.org/2000/svg">
<g filter="url(#filter0_d_602_197)">
<path d="M18.2871 26.209H40.1211C41.2878 26.209 42.3542 26.1133 43.3203 25.9219C44.2865 25.7305 45.1159 25.2884 45.8086 24.5957C46.5104 23.8939 46.9525 23.0645 47.1348 22.1074C47.3171 21.1504 47.4082 20.084 47.4082 18.9082V14.2871C47.4082 13.1204 47.3171 12.0586 47.1348 11.1016C46.9525 10.1445 46.5104 9.3151 45.8086 8.61328C45.1068 7.92057 44.2728 7.47852 43.3066 7.28711C42.3496 7.0957 41.2878 7 40.1211 7H18.2598C17.1113 7 16.054 7.0957 15.0879 7.28711C14.1309 7.47852 13.3014 7.92513 12.5996 8.62695C11.9069 9.31966 11.4648 10.1445 11.2734 11.1016C11.0911 12.0586 11 13.1113 11 14.2598V18.9082C11 20.084 11.0911 21.1504 11.2734 22.1074C11.4557 23.0645 11.8978 23.8939 12.5996 24.5957C13.3014 25.2884 14.1309 25.7305 15.0879 25.9219C16.054 26.1133 17.1204 26.209 18.2871 26.209ZM17.918 24.0078C17.2161 24.0078 16.5234 23.9395 15.8398 23.8027C15.1654 23.666 14.6185 23.3926 14.1992 22.9824C13.7891 22.5723 13.5202 22.0299 13.3926 21.3555C13.265 20.681 13.2012 19.9928 13.2012 19.291V13.959C13.2012 13.2389 13.265 12.5417 13.3926 11.8672C13.5202 11.1836 13.7891 10.6322 14.1992 10.2129C14.6094 9.80273 15.1562 9.53385 15.8398 9.40625C16.5326 9.26953 17.2389 9.20117 17.959 9.20117H40.4902C41.1921 9.20117 41.8802 9.26953 42.5547 9.40625C43.2383 9.53385 43.7897 9.80729 44.209 10.2266C44.6191 10.6367 44.888 11.179 45.0156 11.8535C45.1432 12.528 45.207 13.2161 45.207 13.918V19.291C45.207 19.9928 45.1432 20.681 45.0156 21.3555C44.888 22.0299 44.6191 22.5723 44.209 22.9824C43.7897 23.4017 43.2383 23.6797 42.5547 23.8164C41.8802 23.944 41.1921 24.0078 40.4902 24.0078H17.918ZM49.2676 20.1387C49.6322 20.1113 50.0104 19.9518 50.4023 19.6602C50.7943 19.3594 51.127 18.9492 51.4004 18.4297C51.6738 17.9102 51.8105 17.2995 51.8105 16.5977C51.8105 15.9049 51.6738 15.2988 51.4004 14.7793C51.127 14.2598 50.7943 13.8496 50.4023 13.5488C50.0104 13.248 49.6322 13.0885 49.2676 13.0703V20.1387ZM17.3711 22.2715H41.0508C41.5247 22.2715 41.9076 22.235 42.1992 22.1621C42.4909 22.0892 42.7415 21.9525 42.9512 21.752C43.1517 21.5514 43.2884 21.3053 43.3613 21.0137C43.4434 20.7129 43.4844 20.3255 43.4844 19.8516V13.3574C43.4844 12.8835 43.4434 12.5007 43.3613 12.209C43.2884 11.9082 43.1517 11.6576 42.9512 11.457C42.7415 11.2474 42.4909 11.1107 42.1992 11.0469C41.9076 10.974 41.5247 10.9375 41.0508 10.9375H17.3711C16.888 10.9375 16.5007 10.974 16.209 11.0469C15.9173 11.1107 15.6712 11.2474 15.4707 11.457C15.2702 11.6576 15.1289 11.9082 15.0469 12.209C14.974 12.5007 14.9375 12.8835 14.9375 13.3574V19.8516C14.9375 20.3255 14.974 20.7129 15.0469 21.0137C15.1289 21.3053 15.2702 21.5514 15.4707 21.752C15.6803 21.9525 15.9264 22.0892 16.209 22.1621C16.5007 22.235 16.888 22.2715 17.3711 22.2715Z" fill="white" fill-opacity="0.9"/>
</g>
<defs>
<filter id="filter0_d_602_197" x="0.5" y="0" width="61.8105" height="40.209" filterUnits="userSpaceOnUse" color-interpolation-filters="sRGB">
<feFlood flood-opacity="0" result="BackgroundImageFix"/>
<feColorMatrix in="SourceAlpha" type="matrix" values="0 0 0 0 0 0 0 0 0 0 0 0 0 0 0 0 0 0 127 0" result="hardAlpha"/>
<feOffset dy="3.5"/>
<feGaussianBlur stdDeviation="5.25"/>
<feColorMatrix type="matrix" values="0 0 0 0 0 0 0 0 0 0 0 0 0 0 0 0 0 0 0.15 0"/>
<feBlend mode="normal" in2="BackgroundImageFix" result="effect1_dropShadow_602_197"/>
<feBlend mode="normal" in="SourceGraphic" in2="effect1_dropShadow_602_197" result="shape"/>
</filter>
</defs>
</svg>
