
<svg width="45" height="49" viewBox="0 0 45 49" fill="none" xmlns="http://www.w3.org/2000/svg">
<g filter="url(#filter0_d_703_89)">
<path d="M27.825 8.01945L17.2701 7.98076C16.1167 7.97653 15.069 8.21141 14.1271 8.6853C13.1852 9.15013 12.4365 9.80836 11.881 10.6602C11.3157 11.5027 11.031 12.4886 11.0269 13.6178C11.0227 14.7471 11.3002 15.7351 11.8593 16.5817C12.4086 17.4376 13.1524 18.1013 14.0909 18.5729C15.0292 19.0538 16.0752 19.2964 17.2286 19.3006L27.7835 19.3393C28.9369 19.3435 29.9845 19.1087 30.9265 18.6347C31.8683 18.1699 32.6219 17.5117 33.1872 16.6599C33.7427 15.8174 34.0226 14.8314 34.0267 13.7021C34.0309 12.5729 33.7582 11.585 33.2089 10.7384C32.6499 9.88246 31.9011 9.21874 30.9627 8.74702C30.0242 8.26623 28.9784 8.02368 27.825 8.01945ZM16.8845 10.0589C17.5822 10.0706 18.2165 10.2381 18.7872 10.5615C19.3579 10.885 19.8117 11.3181 20.1491 11.861C20.4766 12.404 20.6392 13.0059 20.6367 13.6669C20.6343 14.3186 20.4674 14.9148 20.1359 15.4553C19.7946 15.9957 19.3376 16.4255 18.7645 16.7448C18.1914 17.064 17.556 17.2223 16.8582 17.2197C16.1603 17.2172 15.5261 17.0542 14.9555 16.7308C14.3751 16.4073 13.9163 15.9741 13.579 15.4313C13.2417 14.8975 13.0792 14.3048 13.0912 13.653C13.0936 12.9919 13.2704 12.3867 13.6213 11.8371C13.9625 11.2875 14.4197 10.8531 14.9926 10.5339C15.556 10.2146 16.1866 10.0563 16.8845 10.0589ZM27.1797 21.4578L17.8023 21.4234C16.5618 21.4189 15.4268 21.6764 14.3974 22.1959C13.3585 22.7155 12.5319 23.4468 11.9178 24.3902C11.2941 25.3336 10.9799 26.4295 10.9753 27.6781C10.9707 28.9267 11.2769 30.025 11.8937 30.9729C12.5008 31.9207 13.3221 32.6582 14.3572 33.1853C15.3827 33.7124 16.5157 33.9782 17.7563 33.9827L27.1336 34.0171C28.3839 34.0217 29.5286 33.7642 30.5676 33.2447C31.5969 32.7252 32.4234 31.9937 33.0472 31.0504C33.6613 30.107 33.9706 29.011 33.9752 27.7624C33.9797 26.5138 33.6785 25.4156 33.0713 24.4678C32.4544 23.5199 31.6333 22.7825 30.6079 22.2553C29.5727 21.7283 28.43 21.4624 27.1797 21.4578ZM27.172 23.5373C27.9862 23.5403 28.7464 23.7175 29.4527 24.0689C30.1492 24.4296 30.7143 24.9228 31.1483 25.5487C31.5724 26.1837 31.7829 26.919 31.7798 27.7544C31.7767 28.5899 31.5609 29.319 31.1322 29.9417C30.6936 30.5736 30.1248 31.0626 29.4258 31.4089C28.7169 31.7644 27.9554 31.9406 27.1412 31.9377L17.7639 31.9033C16.9594 31.9003 16.2089 31.7185 15.5124 31.3579C14.8061 31.0065 14.2409 30.5133 13.8168 29.8782C13.3829 29.2524 13.1675 28.5217 13.1706 27.6862C13.1736 26.8508 13.3944 26.1171 13.833 25.4852C14.2617 24.8625 14.8305 24.3734 15.5393 24.0179C16.2384 23.6717 16.9902 23.5 17.7947 23.5029L27.172 23.5373ZM27.1686 24.4737C26.5289 24.4622 25.9517 24.6024 25.4369 24.8943C24.9125 25.1953 24.4942 25.5932 24.1823 26.0878C23.8606 26.5916 23.6986 27.1464 23.6964 27.7524C23.6845 28.3582 23.8326 28.905 24.141 29.3927C24.4494 29.8896 24.8696 30.2814 25.4016 30.5679C25.924 30.8636 26.5049 31.0126 27.1446 31.015C27.7844 31.0173 28.3664 30.8726 28.8908 30.5807C29.4153 30.2889 29.8335 29.8956 30.1455 29.4009C30.4477 28.9064 30.6 28.3606 30.6022 27.7639C30.6044 27.1579 30.4562 26.6066 30.1576 26.1097C29.8492 25.6128 29.4339 25.2165 28.9116 24.9208C28.3893 24.6251 27.8083 24.4761 27.1686 24.4737Z" fill="white" fill-opacity="0.9"/>
</g>
<defs>
<filter id="filter0_d_703_89" x="0.475342" y="0.980713" width="44.0515" height="47.0364" filterUnits="userSpaceOnUse" color-interpolation-filters="sRGB">
<feFlood flood-opacity="0" result="BackgroundImageFix"/>
<feColorMatrix in="SourceAlpha" type="matrix" values="0 0 0 0 0 0 0 0 0 0 0 0 0 0 0 0 0 0 127 0" result="hardAlpha"/>
<feOffset dy="3.5"/>
<feGaussianBlur stdDeviation="5.25"/>
<feColorMatrix type="matrix" values="0 0 0 0 0 0 0 0 0 0 0 0 0 0 0 0 0 0 0.15 0"/>
<feBlend mode="normal" in2="BackgroundImageFix" result="effect1_dropShadow_703_89"/>
<feBlend mode="normal" in="SourceGraphic" in2="effect1_dropShadow_703_89" result="shape"/>
</filter>
</defs>
</svg>
