<svg width="44" height="47" viewBox="0 0 44 47" fill="none" xmlns="http://www.w3.org/2000/svg">
<g filter="url(#filter0_d_602_198)">
<path d="M16.8516 32.8125H26.7773C27.862 32.8125 28.8464 32.5755 29.7305 32.1016C30.6146 31.6367 31.3164 30.9805 31.8359 30.1328C32.3646 29.2943 32.6289 28.3145 32.6289 27.1934C32.6289 26.0723 32.3646 25.0924 31.8359 24.2539C31.3164 23.4062 30.6146 22.75 29.7305 22.2852C28.8464 21.8112 27.862 21.5742 26.7773 21.5742H16.8516C15.7669 21.5742 14.7826 21.8112 13.8984 22.2852C13.0143 22.75 12.3079 23.4062 11.7793 24.2539C11.2598 25.0924 11 26.0723 11 27.1934C11 28.3145 11.2598 29.2943 11.7793 30.1328C12.3079 30.9805 13.0143 31.6367 13.8984 32.1016C14.7826 32.5755 15.7669 32.8125 16.8516 32.8125ZM27.1328 30.748C26.4766 30.7389 25.8796 30.5749 25.3418 30.2559C24.804 29.9368 24.3757 29.5085 24.0566 28.9707C23.7467 28.4329 23.5918 27.8359 23.5918 27.1797C23.5918 26.5326 23.7467 25.9401 24.0566 25.4023C24.3757 24.8646 24.804 24.4362 25.3418 24.1172C25.8796 23.7982 26.4766 23.6387 27.1328 23.6387C27.7891 23.6387 28.3861 23.7982 28.9238 24.1172C29.4707 24.4362 29.9036 24.8646 30.2227 25.4023C30.5417 25.931 30.6966 26.5189 30.6875 27.166C30.6875 27.8223 30.5234 28.4238 30.1953 28.9707C29.8763 29.5176 29.4479 29.9505 28.9102 30.2695C28.3815 30.5885 27.7891 30.748 27.1328 30.748ZM17.4121 19.4688H26.2305C27.3971 19.4688 28.4635 19.209 29.4297 18.6895C30.4049 18.1699 31.1797 17.4408 31.7539 16.502C32.3372 15.5632 32.6289 14.474 32.6289 13.2344C32.6289 11.9948 32.3372 10.9056 31.7539 9.9668C31.1797 9.02799 30.4049 8.29883 29.4297 7.7793C28.4635 7.25977 27.3971 7 26.2305 7H17.4121C16.2363 7 15.1608 7.25977 14.1855 7.7793C13.2194 8.29883 12.4447 9.02799 11.8613 9.9668C11.2871 10.9056 11 11.9948 11 13.2344C11 14.474 11.2871 15.5632 11.8613 16.502C12.4447 17.4408 13.2194 18.1699 14.1855 18.6895C15.1608 19.209 16.2363 19.4688 17.4121 19.4688ZM17.4121 17.4043C16.6465 17.4043 15.931 17.2311 15.2656 16.8848C14.6094 16.5293 14.0762 16.0417 13.666 15.4219C13.265 14.793 13.0645 14.0638 13.0645 13.2344C13.0645 12.4049 13.265 11.6803 13.666 11.0605C14.0762 10.4316 14.6094 9.94401 15.2656 9.59766C15.931 9.24219 16.6465 9.06445 17.4121 9.06445H26.2305C26.987 9.06445 27.6934 9.24219 28.3496 9.59766C29.015 9.94401 29.5482 10.4316 29.9492 11.0605C30.3594 11.6803 30.5645 12.4049 30.5645 13.2344C30.5645 14.0638 30.3594 14.793 29.9492 15.4219C29.5482 16.0417 29.015 16.5293 28.3496 16.8848C27.6934 17.2311 26.987 17.4043 26.2305 17.4043H17.4121ZM17.4121 16.4746C18.0137 16.4837 18.556 16.3424 19.0391 16.0508C19.5312 15.75 19.9232 15.3535 20.2148 14.8613C20.5156 14.36 20.666 13.8086 20.666 13.207C20.6751 12.6055 20.5339 12.0632 20.2422 11.5801C19.9505 11.0879 19.554 10.7005 19.0527 10.418C18.5605 10.1263 18.0137 9.98047 17.4121 9.98047C16.8105 9.98047 16.2637 10.1263 15.7715 10.418C15.2793 10.7096 14.8874 11.1016 14.5957 11.5938C14.3132 12.0859 14.1719 12.6283 14.1719 13.2207C14.1719 13.8223 14.3132 14.3691 14.5957 14.8613C14.8874 15.3535 15.2793 15.7454 15.7715 16.0371C16.2637 16.3288 16.8105 16.4746 17.4121 16.4746Z" fill="white" fill-opacity="0.9"/>
</g>
<defs>
<filter id="filter0_d_602_198" x="0.5" y="0" width="42.6289" height="46.8125" filterUnits="userSpaceOnUse" color-interpolation-filters="sRGB">
<feFlood flood-opacity="0" result="BackgroundImageFix"/>
<feColorMatrix in="SourceAlpha" type="matrix" values="0 0 0 0 0 0 0 0 0 0 0 0 0 0 0 0 0 0 127 0" result="hardAlpha"/>
<feOffset dy="3.5"/>
<feGaussianBlur stdDeviation="5.25"/>
<feColorMatrix type="matrix" values="0 0 0 0 0 0 0 0 0 0 0 0 0 0 0 0 0 0 0.15 0"/>
<feBlend mode="normal" in2="BackgroundImageFix" result="effect1_dropShadow_602_198"/>
<feBlend mode="normal" in="SourceGraphic" in2="effect1_dropShadow_602_198" result="shape"/>
</filter>
</defs>
</svg>
