
<svg width="55" height="46" viewBox="0 0 55 46" fill="none" xmlns="http://www.w3.org/2000/svg">
<g filter="url(#filter0_d_602_200)">
<path d="M27.5068 32C27.6658 32 27.8249 31.9479 27.9839 31.8437C28.1529 31.7394 28.3766 31.5466 28.6549 31.2652L32.1442 27.7473C32.2635 27.6327 32.3281 27.5024 32.338 27.3565C32.3579 27.2001 32.3181 27.0542 32.2187 26.9187C31.7515 26.2829 31.1004 25.7305 30.2654 25.2614C29.4403 24.7924 28.5207 24.5578 27.5068 24.5578C26.4729 24.5578 25.5335 24.8028 24.6885 25.2927C23.8535 25.7826 23.2024 26.3558 22.7352 27.0125C22.6656 27.1272 22.6407 27.2522 22.6606 27.3877C22.6904 27.5128 22.765 27.6327 22.8843 27.7473L26.3735 31.2652C26.6419 31.5466 26.8606 31.7394 27.0296 31.8437C27.1986 31.9479 27.3577 32 27.5068 32ZM19.1266 23.7917C19.2758 23.9481 19.4398 24.0211 19.6187 24.0106C19.7977 24.0002 19.9617 23.9116 20.1108 23.7448C20.9657 22.7338 22.0542 21.9051 23.3764 21.2589C24.6985 20.6127 26.0753 20.2948 27.5068 20.3052C28.9581 20.2948 30.3449 20.6231 31.667 21.2902C32.9892 21.9468 34.0876 22.7807 34.9624 23.7917C35.1016 23.9481 35.2557 24.0263 35.4247 24.0263C35.5937 24.0158 35.7477 23.9325 35.8869 23.7761L38.1087 21.4778C38.228 21.3527 38.2926 21.2172 38.3025 21.0713C38.3125 20.9149 38.2677 20.769 38.1683 20.6335C37.4427 19.7059 36.5331 18.8772 35.4396 18.1476C34.3461 17.4075 33.1234 16.8291 31.7714 16.4121C30.4194 15.9848 28.9979 15.7711 27.5068 15.7711C26.0157 15.7711 24.5941 15.9848 23.2422 16.4121C21.9001 16.8291 20.6824 17.4075 19.5889 18.1476C18.4954 18.8772 17.5858 19.7059 16.8601 20.6335C16.7508 20.769 16.7011 20.9097 16.711 21.0557C16.721 21.2016 16.7856 21.3423 16.9049 21.4778L19.1266 23.7917ZM13.1621 17.5222C13.3013 17.6785 13.4604 17.7567 13.6393 17.7567C13.8282 17.7463 13.9872 17.6629 14.1165 17.5066C15.8859 15.547 17.9089 14.0617 20.1853 13.0507C22.4618 12.0292 24.9023 11.5184 27.5068 11.5184C30.1212 11.5184 32.5667 12.0292 34.8431 13.0507C37.1295 14.0721 39.1525 15.5626 40.912 17.5222C41.0412 17.6577 41.1953 17.7255 41.3743 17.7255C41.5532 17.7255 41.7073 17.6473 41.8365 17.4909L43.8048 15.4115C43.934 15.2864 43.9986 15.1457 43.9986 14.9894C44.0086 14.8226 43.9639 14.6767 43.8644 14.5516C42.7411 13.1028 41.3246 11.8103 39.6147 10.6742C37.9049 9.52762 36.0112 8.63123 33.9335 7.98499C31.8658 7.32833 29.7236 7 27.5068 7C25.29 7 23.1427 7.32833 21.0651 7.98499C18.9875 8.63123 17.0937 9.52762 15.3839 10.6742C13.684 11.8103 12.2724 13.1028 11.1491 14.5516C11.0497 14.6767 11 14.8226 11 14.9894C11.0099 15.1457 11.0746 15.2864 11.1938 15.4115L13.1621 17.5222Z" fill="white" fill-opacity="0.9"/>
</g>
<defs>
<filter id="filter0_d_602_200" x="0.5" y="0" width="54" height="46" filterUnits="userSpaceOnUse" color-interpolation-filters="sRGB">
<feFlood flood-opacity="0" result="BackgroundImageFix"/>
<feColorMatrix in="SourceAlpha" type="matrix" values="0 0 0 0 0 0 0 0 0 0 0 0 0 0 0 0 0 0 127 0" result="hardAlpha"/>
<feOffset dy="3.5"/>
<feGaussianBlur stdDeviation="5.25"/>
<feColorMatrix type="matrix" values="0 0 0 0 0 0 0 0 0 0 0 0 0 0 0 0 0 0 0.15 0"/>
<feBlend mode="normal" in2="BackgroundImageFix" result="effect1_dropShadow_602_200"/>
<feBlend mode="normal" in="SourceGraphic" in2="effect1_dropShadow_602_200" result="shape"/>
</filter>
</defs>
</svg>
